<?xml version="1.0" standalone="no"?>
<!DOCTYPE svg PUBLIC "-//W3C//DTD SVG 20010904//EN"
 "http://www.w3.org/TR/2001/REC-SVG-20010904/DTD/svg10.dtd">
<svg version="1.0" xmlns="http://www.w3.org/2000/svg"
 width="512.000000pt" height="512.000000pt" viewBox="0 0 512.000000 512.000000"
 preserveAspectRatio="xMidYMid meet">

<g transform="translate(0.000000,512.000000) scale(0.100000,-0.100000)"
fill="#000000" stroke="none">
<path d="M4090 4211 c-14 -5 -41 -16 -60 -25 -19 -10 -502 -484 -1073 -1054
l-1037 -1037 -398 397 c-272 271 -411 403 -442 419 -68 34 -177 38 -255 8 -51
-19 -77 -40 -181 -143 -144 -145 -167 -184 -168 -296 -2 -144 -39 -99 678
-819 436 -438 654 -649 681 -662 51 -24 119 -24 170 0 28 13 434 413 1321
1302 1430 1432 1320 1311 1318 1459 -1 112 -24 151 -168 296 -102 102 -130
124 -179 142 -59 22 -156 28 -207 13z"/>
</g>
</svg>
